<mxfile host="app.diagrams.net" modified="2024-07-08T19:18:56.534Z" agent="Mozilla/5.0 (Macintosh; Intel Mac OS X 10_15_7) AppleWebKit/537.36 (KHTML, like Gecko) Chrome/126.0.0.0 Safari/537.36" version="24.4.6" etag="rEJXJIs905DSO1FGPDtj" type="github">
  <diagram name="Page-1" id="ON5fAtFBxlQgktRSKZF2">
    <mxGraphModel>
      <root>
        <mxCell id="0" />
        <mxCell id="1" parent="0" />
      </root>
    </mxGraphModel>
  </diagram>
</mxfile>
